<?xml version="1.0" encoding="UTF-8"?>
<svg xmlns="http://www.w3.org/2000/svg" xmlns:xlink="http://www.w3.org/1999/xlink" width="500px" height="500px" viewBox="0 0 500 500" version="1.1">
<g id="surface1">
<path style=" stroke:none;fill-rule:nonzero;fill:rgb(0%,0%,0%);fill-opacity:1;" d="M 0.101562 250 L 0.101562 500 L 499.898438 500 L 499.898438 0 L 0.101562 0 Z M 257.761719 31.378906 C 257.761719 31.957031 258.019531 32.425781 258.277344 32.425781 C 258.589844 32.425781 258.796875 33.105469 258.796875 33.996094 C 258.796875 34.832031 259.054688 35.566406 259.3125 35.566406 C 259.625 35.566406 259.832031 36.035156 259.832031 36.609375 C 259.832031 37.1875 260.089844 37.65625 260.347656 37.65625 C 260.65625 37.65625 260.863281 38.128906 260.863281 38.703125 C 260.863281 39.277344 261.125 39.75 261.382812 39.75 C 261.691406 39.75 261.898438 40.429688 261.898438 41.316406 C 261.898438 42.15625 262.160156 42.886719 262.417969 42.886719 C 262.726562 42.886719 262.933594 43.566406 262.933594 44.457031 C 262.933594 45.292969 263.191406 46.023438 263.453125 46.023438 C 263.761719 46.023438 263.96875 46.964844 263.96875 48.117188 C 263.96875 49.269531 264.226562 50.210938 264.488281 50.210938 C 264.796875 50.210938 265.003906 50.890625 265.003906 51.777344 C 265.003906 52.613281 265.261719 53.347656 265.523438 53.347656 C 265.832031 53.347656 266.039062 54.496094 266.039062 55.960938 C 266.039062 57.375 266.296875 58.578125 266.554688 58.578125 C 266.867188 58.578125 267.074219 59.988281 267.074219 61.714844 C 267.074219 63.441406 267.28125 64.855469 267.589844 64.855469 C 267.902344 64.855469 268.109375 66.578125 268.109375 69.039062 C 268.109375 71.496094 268.316406 73.222656 268.625 73.222656 C 268.9375 73.222656 269.144531 77.25 269.144531 84.203125 C 269.144531 91.160156 268.9375 95.1875 268.625 95.1875 C 268.316406 95.1875 268.109375 97.125 268.109375 99.894531 C 268.109375 102.667969 267.902344 104.601562 267.589844 104.601562 C 267.28125 104.601562 267.074219 106.015625 267.074219 107.742188 C 267.074219 109.464844 266.867188 110.878906 266.554688 110.878906 C 266.296875 110.878906 266.039062 112.027344 266.039062 113.492188 C 266.039062 114.90625 265.832031 116.109375 265.523438 116.109375 C 265.261719 116.109375 265.003906 117.050781 265.003906 118.199219 C 265.003906 119.351562 264.796875 120.292969 264.488281 120.292969 C 264.226562 120.292969 263.96875 121.234375 263.96875 122.386719 C 263.96875 123.535156 263.761719 124.476562 263.453125 124.476562 C 263.191406 124.476562 262.933594 125.417969 262.933594 126.570312 C 262.933594 127.71875 262.726562 128.660156 262.417969 128.660156 C 262.160156 128.660156 261.898438 129.339844 261.898438 130.230469 C 261.898438 131.066406 261.691406 131.800781 261.382812 131.800781 C 261.125 131.800781 260.863281 132.480469 260.863281 133.367188 C 260.863281 134.203125 260.65625 134.9375 260.347656 134.9375 C 260.089844 134.9375 259.832031 135.617188 259.832031 136.507812 C 259.832031 137.34375 259.625 138.074219 259.3125 138.074219 C 259.054688 138.074219 258.796875 138.753906 258.796875 139.644531 C 258.796875 140.480469 258.589844 141.214844 258.277344 141.214844 C 258.019531 141.214844 257.761719 142.15625 257.761719 143.304688 C 257.761719 144.457031 257.554688 145.398438 257.242188 145.398438 C 256.984375 145.398438 256.726562 146.339844 256.726562 147.488281 C 256.726562 148.640625 256.519531 149.582031 256.207031 149.582031 C 255.949219 149.582031 255.691406 150.523438 255.691406 151.671875 C 255.691406 152.824219 255.484375 153.765625 255.175781 153.765625 C 254.914062 153.765625 254.65625 154.917969 254.65625 156.378906 C 254.65625 157.792969 254.449219 158.996094 254.140625 158.996094 C 253.828125 158.996094 253.621094 160.566406 253.621094 162.65625 C 253.621094 164.75 253.414062 166.316406 253.105469 166.316406 C 252.792969 166.316406 252.585938 169.980469 252.585938 176.253906 C 252.585938 182.53125 252.378906 186.191406 252.070312 186.191406 C 251.8125 186.191406 251.550781 186.664062 251.550781 187.238281 C 251.550781 187.8125 251.8125 188.285156 252.070312 188.285156 C 252.378906 188.285156 252.585938 191.054688 252.585938 195.605469 C 252.585938 200.15625 252.792969 202.929688 253.105469 202.929688 C 253.414062 202.929688 253.621094 204.496094 253.621094 206.589844 C 253.621094 208.683594 253.828125 210.25 254.140625 210.25 C 254.449219 210.25 254.65625 211.664062 254.65625 213.390625 C 254.65625 215.113281 254.863281 216.527344 255.175781 216.527344 C 255.484375 216.527344 255.691406 217.679688 255.691406 219.140625 C 255.691406 220.554688 255.949219 221.757812 256.207031 221.757812 C 256.519531 221.757812 256.726562 222.4375 256.726562 223.328125 C 256.726562 224.164062 256.519531 224.894531 256.207031 224.894531 C 255.949219 224.894531 255.691406 225.367188 255.691406 225.941406 C 255.691406 226.515625 255.484375 226.988281 255.175781 226.988281 C 254.914062 226.988281 254.65625 227.457031 254.65625 228.035156 C 254.65625 228.609375 254.449219 229.078125 254.140625 229.078125 C 253.878906 229.078125 253.621094 229.550781 253.621094 230.125 C 253.621094 230.699219 253.414062 231.171875 253.105469 231.171875 C 252.84375 231.171875 252.585938 231.640625 252.585938 232.21875 C 252.585938 232.792969 252.378906 233.261719 252.070312 233.261719 C 251.8125 233.261719 251.550781 233.734375 251.550781 234.308594 C 251.550781 234.886719 251.34375 235.355469 251.035156 235.355469 C 250.777344 235.355469 250.515625 235.828125 250.515625 236.402344 C 250.515625 236.976562 250.308594 237.449219 250 237.449219 C 249.742188 237.449219 249.484375 237.917969 249.484375 238.492188 C 249.484375 239.070312 249.277344 239.539062 248.964844 239.539062 C 248.707031 239.539062 248.449219 240.21875 248.449219 241.109375 C 248.449219 241.945312 248.242188 242.679688 247.929688 242.679688 C 247.671875 242.679688 247.414062 243.148438 247.414062 243.722656 C 247.414062 244.300781 247.207031 244.769531 246.894531 244.769531 C 246.636719 244.769531 246.378906 245.242188 246.378906 245.816406 C 246.378906 246.390625 246.171875 246.863281 245.859375 246.863281 C 245.601562 246.863281 245.34375 247.332031 245.34375 247.90625 C 245.34375 248.484375 245.136719 248.953125 244.824219 248.953125 C 244.566406 248.953125 244.308594 249.425781 244.308594 250 C 244.308594 250.574219 244.101562 251.046875 243.792969 251.046875 C 243.53125 251.046875 243.273438 251.515625 243.273438 252.09375 C 243.273438 252.667969 243.066406 253.136719 242.757812 253.136719 C 242.496094 253.136719 242.238281 253.609375 242.238281 254.183594 C 242.238281 254.757812 242.03125 255.230469 241.722656 255.230469 C 241.464844 255.230469 241.203125 255.699219 241.203125 256.277344 C 241.203125 256.851562 240.996094 257.320312 240.6875 257.320312 C 240.429688 257.320312 240.167969 257.792969 240.167969 258.367188 C 240.167969 258.945312 239.960938 259.414062 239.652344 259.414062 C 239.394531 259.414062 239.136719 259.886719 239.136719 260.460938 C 239.136719 261.035156 238.929688 261.507812 238.617188 261.507812 C 238.359375 261.507812 238.101562 261.976562 238.101562 262.550781 C 238.101562 263.128906 237.894531 263.597656 237.582031 263.597656 C 237.324219 263.597656 237.066406 264.070312 237.066406 264.644531 C 237.066406 265.21875 236.859375 265.691406 236.546875 265.691406 C 236.289062 265.691406 236.03125 266.371094 236.03125 267.257812 C 236.03125 268.097656 235.824219 268.828125 235.511719 268.828125 C 235.253906 268.828125 234.996094 269.300781 234.996094 269.875 C 234.996094 270.449219 234.789062 270.921875 234.476562 270.921875 C 234.21875 270.921875 233.960938 271.390625 233.960938 271.964844 C 233.960938 272.542969 233.753906 273.011719 233.445312 273.011719 C 233.183594 273.011719 232.925781 273.484375 232.925781 274.058594 C 232.925781 274.632812 232.71875 275.105469 232.410156 275.105469 C 232.148438 275.105469 231.890625 275.574219 231.890625 276.152344 C 231.890625 276.726562 231.683594 277.195312 231.375 277.195312 C 231.117188 277.195312 230.855469 277.667969 230.855469 278.242188 C 230.855469 278.816406 230.648438 279.289062 230.339844 279.289062 C 230.082031 279.289062 229.820312 279.757812 229.820312 280.335938 C 229.820312 280.910156 229.613281 281.378906 229.304688 281.378906 C 229.046875 281.378906 228.789062 281.851562 228.789062 282.425781 C 228.789062 283.003906 228.582031 283.472656 228.269531 283.472656 C 228.011719 283.472656 227.753906 283.945312 227.753906 284.519531 C 227.753906 285.09375 227.546875 285.566406 227.234375 285.566406 C 226.976562 285.566406 226.71875 286.035156 226.71875 286.609375 C 226.71875 287.1875 226.511719 287.65625 226.199219 287.65625 C 225.941406 287.65625 225.683594 288.128906 225.683594 288.703125 C 225.683594 289.277344 225.476562 289.75 225.164062 289.75 C 224.90625 289.75 224.648438 290.21875 224.648438 290.796875 C 224.648438 291.371094 224.441406 291.839844 224.128906 291.839844 C 223.871094 291.839844 223.613281 292.519531 223.613281 293.410156 C 223.613281 294.246094 223.40625 294.980469 223.097656 294.980469 C 222.835938 294.980469 222.578125 295.449219 222.578125 296.023438 C 222.578125 296.601562 222.371094 297.070312 222.0625 297.070312 C 221.800781 297.070312 221.542969 297.542969 221.542969 298.117188 C 221.542969 298.691406 221.335938 299.164062 221.027344 299.164062 C 220.769531 299.164062 220.507812 299.632812 220.507812 300.210938 C 220.507812 300.785156 220.300781 301.253906 219.992188 301.253906 C 219.734375 301.253906 219.472656 301.726562 219.472656 302.300781 C 219.472656 302.875 219.265625 303.347656 218.957031 303.347656 C 218.699219 303.347656 218.441406 303.816406 218.441406 304.394531 C 218.441406 304.96875 218.234375 305.4375 217.921875 305.4375 C 217.664062 305.4375 217.40625 305.910156 217.40625 306.484375 C 217.40625 307.0625 217.199219 307.53125 216.886719 307.53125 C 216.628906 307.53125 216.371094 308.003906 216.371094 308.578125 C 216.371094 309.152344 216.164062 309.625 215.851562 309.625 C 215.59375 309.625 215.335938 310.09375 215.335938 310.667969 C 215.335938 311.246094 215.128906 311.714844 214.816406 311.714844 C 214.558594 311.714844 214.300781 312.1875 214.300781 312.761719 C 214.300781 313.335938 214.09375 313.808594 213.78125 313.808594 C 213.523438 313.808594 213.265625 314.277344 213.265625 314.855469 C 213.265625 315.429688 213.058594 315.898438 212.75 315.898438 C 212.488281 315.898438 212.230469 316.371094 212.230469 316.945312 C 212.230469 317.519531 212.023438 317.992188 211.714844 317.992188 C 211.453125 317.992188 211.195312 318.671875 211.195312 319.5625 C 211.195312 320.398438 210.988281 321.128906 210.679688 321.128906 C 210.421875 321.128906 210.160156 321.601562 210.160156 322.175781 C 210.160156 322.75 209.953125 323.222656 209.644531 323.222656 C 209.386719 323.222656 209.125 323.691406 209.125 324.269531 C 209.125 324.84375 208.917969 325.3125 208.609375 325.3125 C 208.351562 325.3125 208.09375 325.679688 208.09375 326.152344 C 208.09375 328.503906 209.59375 328.453125 157.699219 328.453125 C 125.414062 328.453125 108.753906 328.296875 108.753906 327.929688 C 108.753906 327.613281 109.011719 327.40625 109.273438 327.40625 C 109.582031 327.40625 109.789062 326.933594 109.789062 326.359375 C 109.789062 325.785156 110.046875 325.3125 110.304688 325.3125 C 110.617188 325.3125 110.824219 324.632812 110.824219 323.847656 C 110.824219 323.011719 111.238281 322.070312 111.859375 321.652344 C 112.425781 321.234375 112.894531 320.503906 112.894531 319.980469 C 112.894531 319.457031 113.152344 319.039062 113.410156 319.039062 C 113.722656 319.039062 113.929688 318.566406 113.929688 317.992188 C 113.929688 317.417969 114.1875 316.945312 114.445312 316.945312 C 114.753906 316.945312 114.960938 316.476562 114.960938 315.898438 C 114.960938 315.324219 115.222656 314.855469 115.480469 314.855469 C 115.789062 314.855469 115.996094 314.382812 115.996094 313.808594 C 115.996094 313.230469 116.257812 312.761719 116.515625 312.761719 C 116.824219 312.761719 117.03125 312.082031 117.03125 311.296875 C 117.03125 310.460938 117.445312 309.519531 118.066406 309.101562 C 118.636719 308.683594 119.101562 307.742188 119.101562 307.007812 C 119.101562 306.277344 119.566406 305.335938 120.136719 304.917969 C 120.707031 304.496094 121.171875 303.765625 121.171875 303.242188 C 121.171875 302.71875 121.429688 302.300781 121.6875 302.300781 C 122 302.300781 122.207031 301.832031 122.207031 301.253906 C 122.207031 300.679688 122.464844 300.210938 122.722656 300.210938 C 123.035156 300.210938 123.242188 299.738281 123.242188 299.164062 C 123.242188 298.585938 123.5 298.117188 123.757812 298.117188 C 124.070312 298.117188 124.277344 297.644531 124.277344 297.070312 C 124.277344 296.496094 124.535156 296.023438 124.792969 296.023438 C 125.101562 296.023438 125.308594 295.34375 125.308594 294.5625 C 125.308594 293.722656 125.722656 292.78125 126.34375 292.363281 C 126.914062 291.945312 127.378906 291.003906 127.378906 290.273438 C 127.378906 289.539062 127.84375 288.597656 128.414062 288.179688 C 128.984375 287.761719 129.449219 287.027344 129.449219 286.507812 C 129.449219 285.984375 129.707031 285.566406 129.96875 285.566406 C 130.277344 285.566406 130.484375 285.09375 130.484375 284.519531 C 130.484375 283.945312 130.742188 283.472656 131 283.472656 C 131.3125 283.472656 131.519531 283.003906 131.519531 282.425781 C 131.519531 281.851562 131.777344 281.378906 132.035156 281.378906 C 132.347656 281.378906 132.554688 280.910156 132.554688 280.335938 C 132.554688 279.757812 132.8125 279.289062 133.070312 279.289062 C 133.382812 279.289062 133.589844 278.609375 133.589844 277.824219 C 133.589844 276.988281 134.003906 276.046875 134.625 275.628906 C 135.191406 275.210938 135.65625 274.269531 135.65625 273.535156 C 135.65625 272.804688 136.125 271.863281 136.691406 271.445312 C 137.261719 271.023438 137.726562 270.292969 137.726562 269.769531 C 137.726562 269.246094 137.988281 268.828125 138.246094 268.828125 C 138.554688 268.828125 138.761719 268.359375 138.761719 267.78125 C 138.761719 267.207031 139.019531 266.738281 139.28125 266.738281 C 139.589844 266.738281 139.796875 266.265625 139.796875 265.691406 C 139.796875 265.113281 140.054688 264.644531 140.316406 264.644531 C 140.625 264.644531 140.832031 264.171875 140.832031 263.597656 C 140.832031 263.023438 141.089844 262.550781 141.347656 262.550781 C 141.660156 262.550781 141.867188 261.871094 141.867188 261.085938 C 141.867188 260.25 142.28125 259.308594 142.902344 258.890625 C 143.46875 258.472656 143.9375 257.53125 143.9375 256.800781 C 143.9375 256.066406 144.402344 255.125 144.972656 254.707031 C 145.539062 254.289062 146.003906 253.554688 146.003906 253.035156 C 146.003906 252.511719 146.265625 252.09375 146.523438 252.09375 C 146.832031 252.09375 147.039062 251.621094 147.039062 251.046875 C 147.039062 250.472656 147.300781 250 147.558594 250 C 147.867188 250 148.074219 249.527344 148.074219 248.953125 C 148.074219 248.378906 148.335938 247.90625 148.59375 247.90625 C 148.902344 247.90625 149.109375 247.4375 149.109375 246.863281 C 149.109375 246.285156 149.367188 245.816406 149.628906 245.816406 C 149.9375 245.816406 150.144531 245.136719 150.144531 244.351562 C 150.144531 243.515625 150.558594 242.574219 151.179688 242.15625 C 151.75 241.738281 152.214844 240.796875 152.214844 240.0625 C 152.214844 239.332031 152.679688 238.390625 153.25 237.972656 C 153.816406 237.550781 154.285156 236.820312 154.285156 236.296875 C 154.285156 235.773438 154.542969 235.355469 154.800781 235.355469 C 155.113281 235.355469 155.320312 234.886719 155.320312 234.308594 C 155.320312 233.734375 155.578125 233.261719 155.835938 233.261719 C 156.148438 233.261719 156.351562 232.792969 156.351562 232.21875 C 156.351562 231.640625 156.613281 231.171875 156.871094 231.171875 C 157.179688 231.171875 157.386719 230.699219 157.386719 230.125 C 157.386719 229.550781 157.648438 229.078125 157.90625 229.078125 C 158.214844 229.078125 158.421875 228.398438 158.421875 227.613281 C 158.421875 226.777344 158.835938 225.835938 159.457031 225.417969 C 160.027344 225 160.492188 224.058594 160.492188 223.328125 C 160.492188 222.59375 160.957031 221.652344 161.527344 221.234375 C 162.097656 220.816406 162.5625 220.082031 162.5625 219.5625 C 162.5625 219.039062 162.820312 218.621094 163.078125 218.621094 C 163.390625 218.621094 163.597656 218.148438 163.597656 217.574219 C 163.597656 216.996094 163.855469 216.527344 164.113281 216.527344 C 164.425781 216.527344 164.632812 216.054688 164.632812 215.480469 C 164.632812 214.90625 164.890625 214.433594 165.148438 214.433594 C 165.460938 214.433594 165.667969 213.964844 165.667969 213.390625 C 165.667969 212.8125 165.925781 212.34375 166.183594 212.34375 C 166.496094 212.34375 166.699219 211.664062 166.699219 210.878906 C 166.699219 210.042969 167.113281 209.101562 167.734375 208.683594 C 168.304688 208.261719 168.769531 207.320312 168.769531 206.589844 C 168.769531 205.859375 169.238281 204.917969 169.804688 204.496094 C 170.375 204.078125 170.839844 203.347656 170.839844 202.824219 C 170.839844 202.300781 171.097656 201.882812 171.359375 201.882812 C 171.667969 201.882812 171.875 201.414062 171.875 200.835938 C 171.875 200.261719 172.132812 199.789062 172.390625 199.789062 C 172.703125 199.789062 172.910156 199.320312 172.910156 198.746094 C 172.910156 198.167969 173.167969 197.699219 173.425781 197.699219 C 173.738281 197.699219 173.945312 197.226562 173.945312 196.652344 C 173.945312 196.078125 174.203125 195.605469 174.460938 195.605469 C 174.773438 195.605469 174.980469 194.925781 174.980469 194.140625 C 174.980469 193.304688 175.394531 192.363281 176.015625 191.945312 C 176.582031 191.527344 177.050781 190.585938 177.050781 189.855469 C 177.050781 189.121094 177.515625 188.179688 178.082031 187.761719 C 178.652344 187.34375 179.117188 186.609375 179.117188 186.085938 C 179.117188 185.566406 179.378906 185.144531 179.636719 185.144531 C 179.945312 185.144531 180.152344 184.675781 180.152344 184.101562 C 180.152344 183.523438 180.410156 183.054688 180.671875 183.054688 C 180.980469 183.054688 181.1875 182.582031 181.1875 182.007812 C 181.1875 181.433594 181.445312 180.960938 181.707031 180.960938 C 182.015625 180.960938 182.222656 180.492188 182.222656 179.917969 C 182.222656 179.339844 182.480469 178.871094 182.738281 178.871094 C 183.050781 178.871094 183.257812 178.191406 183.257812 177.40625 C 183.257812 176.570312 183.671875 175.628906 184.292969 175.210938 C 184.863281 174.789062 185.328125 173.847656 185.328125 173.117188 C 185.328125 172.386719 185.792969 171.445312 186.363281 171.023438 C 186.929688 170.605469 187.398438 169.875 187.398438 169.351562 C 187.398438 168.828125 187.65625 168.410156 187.914062 168.410156 C 188.222656 168.410156 188.429688 167.9375 188.429688 167.363281 C 188.429688 166.789062 188.691406 166.316406 188.949219 166.316406 C 189.257812 166.316406 189.464844 165.847656 189.464844 165.273438 C 189.464844 164.695312 189.726562 164.226562 189.984375 164.226562 C 190.292969 164.226562 190.5 163.753906 190.5 163.179688 C 190.5 162.605469 190.757812 162.132812 191.019531 162.132812 C 191.328125 162.132812 191.535156 161.453125 191.535156 160.667969 C 191.535156 159.832031 191.949219 158.890625 192.570312 158.472656 C 193.140625 158.054688 193.605469 157.113281 193.605469 156.378906 C 193.605469 155.648438 194.070312 154.707031 194.640625 154.289062 C 195.210938 153.871094 195.675781 153.136719 195.675781 152.613281 C 195.675781 152.09375 195.933594 151.671875 196.191406 151.671875 C 196.503906 151.671875 196.710938 151.203125 196.710938 150.628906 C 196.710938 150.050781 196.96875 149.582031 197.226562 149.582031 C 197.539062 149.582031 197.746094 149.109375 197.746094 148.535156 C 197.746094 147.960938 198.003906 147.488281 198.261719 147.488281 C 198.570312 147.488281 198.777344 147.019531 198.777344 146.445312 C 198.777344 145.867188 199.039062 145.398438 199.296875 145.398438 C 199.605469 145.398438 199.8125 144.71875 199.8125 143.933594 C 199.8125 143.097656 200.226562 142.15625 200.847656 141.738281 C 201.417969 141.316406 201.882812 140.375 201.882812 139.644531 C 201.882812 138.914062 202.347656 137.972656 202.917969 137.550781 C 203.488281 137.132812 203.953125 136.402344 203.953125 135.878906 C 203.953125 135.355469 204.210938 134.9375 204.46875 134.9375 C 204.78125 134.9375 204.988281 134.464844 204.988281 133.890625 C 204.988281 133.316406 205.246094 132.84375 205.503906 132.84375 C 205.816406 132.84375 206.023438 132.375 206.023438 131.800781 C 206.023438 131.222656 206.28125 130.753906 206.539062 130.753906 C 206.851562 130.753906 207.058594 130.28125 207.058594 129.707031 C 207.058594 129.132812 207.316406 128.660156 207.574219 128.660156 C 207.886719 128.660156 208.09375 127.980469 208.09375 127.195312 C 208.09375 126.359375 208.503906 125.417969 209.125 125 C 209.695312 124.582031 210.160156 123.640625 210.160156 122.90625 C 210.160156 122.175781 210.628906 121.234375 211.195312 120.816406 C 211.765625 120.398438 212.230469 119.664062 212.230469 119.140625 C 212.230469 118.621094 212.488281 118.199219 212.75 118.199219 C 213.058594 118.199219 213.265625 117.730469 213.265625 117.15625 C 213.265625 116.578125 213.523438 116.109375 213.78125 116.109375 C 214.09375 116.109375 214.300781 115.636719 214.300781 115.0625 C 214.300781 114.488281 214.558594 114.015625 214.816406 114.015625 C 215.128906 114.015625 215.335938 113.546875 215.335938 112.972656 C 215.335938 112.394531 215.59375 111.925781 215.851562 111.925781 C 216.164062 111.925781 216.371094 111.246094 216.371094 110.460938 C 216.371094 109.625 216.785156 108.683594 217.40625 108.261719 C 217.972656 107.84375 218.441406 106.902344 218.441406 106.171875 C 218.441406 105.4375 218.90625 104.496094 219.472656 104.078125 C 220.042969 103.660156 220.507812 102.929688 220.507812 102.40625 C 220.507812 101.882812 220.769531 101.464844 221.027344 101.464844 C 221.335938 101.464844 221.542969 100.992188 221.542969 100.417969 C 221.542969 99.84375 221.800781 99.371094 222.0625 99.371094 C 222.371094 99.371094 222.578125 98.902344 222.578125 98.328125 C 222.578125 97.75 222.835938 97.28125 223.097656 97.28125 C 223.40625 97.28125 223.613281 96.808594 223.613281 96.234375 C 223.613281 95.660156 223.871094 95.1875 224.128906 95.1875 C 224.441406 95.1875 224.648438 94.507812 224.648438 93.722656 C 224.648438 92.886719 225.0625 91.945312 225.683594 91.527344 C 226.253906 91.109375 226.71875 90.167969 226.71875 89.433594 C 226.71875 88.703125 227.183594 87.761719 227.753906 87.34375 C 228.320312 86.925781 228.789062 86.191406 228.789062 85.667969 C 228.789062 85.144531 229.046875 84.726562 229.304688 84.726562 C 229.613281 84.726562 229.820312 84.257812 229.820312 83.683594 C 229.820312 83.105469 230.082031 82.636719 230.339844 82.636719 C 230.648438 82.636719 230.855469 82.164062 230.855469 81.589844 C 230.855469 81.015625 231.117188 80.542969 231.375 80.542969 C 231.683594 80.542969 231.890625 80.074219 231.890625 79.496094 C 231.890625 78.921875 232.148438 78.453125 232.410156 78.453125 C 232.71875 78.453125 232.925781 77.773438 232.925781 76.988281 C 232.925781 76.152344 233.339844 75.210938 233.960938 74.789062 C 234.53125 74.371094 234.996094 73.429688 234.996094 72.699219 C 234.996094 71.964844 235.460938 71.023438 236.03125 70.605469 C 236.601562 70.1875 237.066406 69.457031 237.066406 68.933594 C 237.066406 68.410156 237.324219 67.992188 237.582031 67.992188 C 237.894531 67.992188 238.101562 67.519531 238.101562 66.945312 C 238.101562 66.371094 238.359375 65.898438 238.617188 65.898438 C 238.929688 65.898438 239.136719 65.429688 239.136719 64.855469 C 239.136719 64.277344 239.394531 63.808594 239.652344 63.808594 C 239.960938 63.808594 240.167969 63.335938 240.167969 62.761719 C 240.167969 62.1875 240.429688 61.714844 240.6875 61.714844 C 240.996094 61.714844 241.203125 61.035156 241.203125 60.25 C 241.203125 59.414062 241.617188 58.472656 242.238281 58.054688 C 242.808594 57.636719 243.273438 56.695312 243.273438 55.960938 C 243.273438 55.230469 243.738281 54.289062 244.308594 53.871094 C 244.878906 53.453125 245.34375 52.71875 245.34375 52.195312 C 245.34375 51.671875 245.601562 51.253906 245.859375 51.253906 C 246.171875 51.253906 246.378906 50.785156 246.378906 50.210938 C 246.378906 49.632812 246.636719 49.164062 246.894531 49.164062 C 247.207031 49.164062 247.414062 48.691406 247.414062 48.117188 C 247.414062 47.542969 247.671875 47.070312 247.929688 47.070312 C 248.242188 47.070312 248.449219 46.601562 248.449219 46.023438 C 248.449219 45.449219 248.707031 44.980469 248.964844 44.980469 C 249.277344 44.980469 249.484375 44.300781 249.484375 43.515625 C 249.484375 42.679688 249.898438 41.738281 250.515625 41.316406 C 251.085938 40.898438 251.550781 39.957031 251.550781 39.226562 C 251.550781 38.492188 252.019531 37.550781 252.585938 37.132812 C 253.15625 36.714844 253.621094 35.773438 253.621094 35.042969 C 253.621094 34.308594 254.085938 33.367188 254.65625 32.949219 C 255.226562 32.53125 255.691406 31.800781 255.691406 31.277344 C 255.691406 30.699219 256.054688 30.335938 256.726562 30.335938 C 257.398438 30.335938 257.761719 30.699219 257.761719 31.378906 Z M 281.558594 337.34375 C 281.558594 337.605469 280.628906 337.867188 279.542969 337.867188 C 278.40625 337.867188 277.371094 338.179688 277.214844 338.492188 C 276.957031 339.015625 276.851562 339.015625 276.59375 338.492188 C 276.074219 337.449219 272.558594 337.710938 271.730469 338.914062 C 271.058594 339.800781 270.386719 339.957031 266.503906 339.957031 C 263.347656 339.957031 261.898438 339.75 261.746094 339.277344 C 261.539062 338.808594 261.332031 338.859375 260.917969 339.433594 C 260.449219 340.113281 260.296875 340.113281 259.882812 339.488281 C 259.46875 338.859375 259.261719 338.859375 258.589844 339.59375 C 258.121094 340.011719 257.761719 340.796875 257.761719 341.214844 C 257.761719 341.945312 256.261719 342.050781 244.824219 342.050781 C 232.253906 342.050781 231.890625 341.996094 231.890625 341.003906 C 231.890625 340.429688 231.683594 339.957031 231.375 339.957031 C 231.117188 339.957031 230.855469 340.324219 230.855469 340.796875 C 230.855469 341.214844 230.496094 341.996094 230.027344 342.417969 C 229.355469 343.148438 229.148438 343.148438 228.683594 342.519531 C 228.320312 341.945312 228.113281 341.945312 227.90625 342.417969 C 227.753906 342.9375 225.839844 343.097656 220.976562 343.097656 C 214.664062 343.097656 214.300781 343.148438 214.300781 344.140625 C 214.300781 345.136719 214.664062 345.1875 219.992188 345.1875 C 223.457031 345.1875 225.683594 344.980469 225.683594 344.664062 C 225.683594 344.351562 228.632812 344.140625 233.445312 344.140625 C 238.253906 344.140625 241.203125 344.351562 241.203125 344.664062 C 241.203125 344.980469 244.308594 345.1875 249.429688 345.1875 C 255.535156 345.1875 257.761719 345.34375 257.914062 345.816406 C 258.121094 346.339844 258.328125 346.285156 258.796875 345.710938 C 259.261719 345.136719 259.46875 345.082031 259.675781 345.554688 C 259.777344 345.921875 260.347656 346.234375 260.863281 346.234375 C 261.382812 346.234375 261.953125 345.921875 262.054688 345.554688 C 262.261719 345.082031 262.46875 345.136719 262.933594 345.710938 C 263.398438 346.285156 263.605469 346.339844 263.8125 345.816406 C 264.125 345.03125 273.28125 344.925781 273.28125 345.710938 C 273.28125 345.972656 274.472656 346.234375 275.871094 346.234375 C 277.316406 346.234375 278.457031 346.445312 278.457031 346.757812 C 278.457031 347.019531 278.25 347.28125 277.9375 347.28125 C 277.679688 347.28125 277.421875 347.488281 277.421875 347.804688 C 277.421875 348.066406 277.886719 348.328125 278.457031 348.328125 C 279.128906 348.328125 279.492188 347.960938 279.492188 347.28125 C 279.492188 346.445312 279.851562 346.234375 281.042969 346.234375 C 282.59375 346.234375 283.164062 347.019531 281.972656 347.386719 C 281.507812 347.542969 281.558594 347.855469 282.179688 348.484375 C 283.214844 349.527344 284.457031 349.632812 284.820312 348.691406 C 285.027344 348.222656 285.234375 348.222656 285.597656 348.796875 C 286.0625 349.425781 286.269531 349.425781 286.941406 348.691406 C 287.40625 348.273438 287.769531 347.488281 287.769531 347.070312 C 287.769531 346.601562 287.871094 346.234375 288.027344 346.234375 C 288.699219 346.234375 290.875 348.847656 290.875 349.632812 C 290.875 350.050781 291.132812 350.417969 291.390625 350.417969 C 291.699219 350.417969 291.90625 350.890625 291.90625 351.464844 C 291.90625 352.039062 292.167969 352.511719 292.425781 352.511719 C 292.734375 352.511719 292.941406 352.980469 292.941406 353.503906 C 292.941406 354.078125 293.253906 354.601562 293.617188 354.757812 C 293.976562 354.863281 294.03125 355.179688 293.769531 355.4375 C 293.511719 355.699219 293.203125 355.648438 293.097656 355.230469 C 292.734375 354.238281 291.90625 354.496094 291.90625 355.648438 C 291.90625 356.539062 291.546875 356.695312 289.839844 356.695312 C 288.132812 356.695312 287.769531 356.851562 287.769531 357.742188 C 287.769531 358.628906 287.40625 358.785156 285.699219 358.785156 C 284.5625 358.785156 283.628906 358.996094 283.628906 359.308594 C 283.628906 359.570312 283.164062 359.832031 282.59375 359.832031 C 282.027344 359.832031 281.558594 360.042969 281.558594 360.355469 C 281.558594 360.617188 280.886719 360.878906 280.007812 360.878906 C 279.179688 360.878906 278.457031 361.085938 278.457031 361.402344 C 278.457031 361.664062 278.09375 361.925781 277.628906 361.925781 C 276.851562 361.925781 275.351562 363.128906 275.351562 363.703125 C 275.351562 363.859375 277.007812 364.015625 278.972656 364.015625 C 281.042969 364.015625 282.59375 364.226562 282.59375 364.539062 C 282.59375 364.800781 283.320312 365.0625 284.148438 365.0625 C 285.234375 365.0625 285.699219 365.324219 285.699219 365.898438 C 285.699219 367.101562 284.40625 368.199219 282.90625 368.199219 C 282.179688 368.199219 281.558594 368.410156 281.558594 368.722656 C 281.558594 368.984375 280.886719 369.246094 280.007812 369.246094 C 278.816406 369.246094 278.457031 369.457031 278.457031 370.292969 C 278.457031 371.183594 278.816406 371.339844 280.527344 371.339844 C 281.664062 371.339844 282.59375 371.546875 282.59375 371.863281 C 282.59375 372.125 282.386719 372.386719 282.078125 372.386719 C 281.820312 372.386719 281.558594 372.855469 281.558594 373.429688 C 281.558594 374.269531 281.199219 374.476562 280.007812 374.476562 C 279.179688 374.476562 278.457031 374.6875 278.457031 375 C 278.457031 375.261719 278.25 375.523438 277.9375 375.523438 C 277.679688 375.523438 277.421875 375.050781 277.421875 374.476562 C 277.421875 373.902344 277.214844 373.429688 276.902344 373.429688 C 276.644531 373.429688 276.386719 373.902344 276.386719 374.476562 C 276.386719 375.367188 276.023438 375.523438 274.316406 375.523438 C 273.179688 375.523438 272.246094 375.730469 272.246094 376.046875 C 272.246094 376.308594 271.78125 376.570312 271.210938 376.570312 C 270.644531 376.570312 270.179688 376.308594 270.179688 376.046875 C 270.179688 375.261719 267.230469 375.417969 266.917969 376.152344 C 266.710938 376.671875 266.503906 376.621094 266.039062 376.046875 C 265.574219 375.472656 265.367188 375.417969 265.160156 375.890625 C 265.054688 376.253906 264.539062 376.570312 264.125 376.570312 C 263.660156 376.570312 262.882812 377.09375 262.367188 377.71875 L 261.382812 378.816406 L 260.347656 377.613281 L 259.3125 376.414062 L 258.328125 377.511719 C 257.347656 378.714844 255.691406 379.078125 255.691406 378.136719 C 255.691406 377.824219 255.226562 377.613281 254.65625 377.613281 C 254.085938 377.613281 253.621094 377.824219 253.621094 378.136719 C 253.621094 378.398438 253.15625 378.660156 252.585938 378.660156 C 252.019531 378.660156 251.550781 378.398438 251.550781 378.136719 C 251.550781 377.824219 251.085938 377.613281 250.515625 377.613281 C 249.949219 377.613281 249.484375 377.824219 249.484375 378.136719 C 249.484375 378.398438 249.015625 378.660156 248.449219 378.660156 C 247.878906 378.660156 247.414062 378.871094 247.414062 379.183594 C 247.414062 379.445312 246.949219 379.707031 246.378906 379.707031 C 245.5 379.707031 245.34375 380.074219 245.34375 381.800781 C 245.34375 382.949219 245.601562 383.890625 245.859375 383.890625 C 246.171875 383.890625 246.378906 383.628906 246.378906 383.367188 C 246.378906 383.054688 246.84375 382.84375 247.414062 382.84375 C 248.085938 382.84375 248.449219 383.210938 248.449219 383.890625 C 248.449219 384.726562 248.808594 384.9375 250 384.9375 C 250.878906 384.9375 251.550781 385.144531 251.550781 385.460938 C 251.550781 385.722656 252.019531 385.984375 252.585938 385.984375 C 253.15625 385.984375 253.621094 385.722656 253.621094 385.460938 C 253.621094 385.144531 254.085938 384.9375 254.65625 384.9375 C 255.328125 384.9375 255.691406 384.570312 255.691406 383.890625 C 255.691406 383.316406 255.949219 382.84375 256.207031 382.84375 C 256.519531 382.84375 256.726562 383.316406 256.726562 383.890625 C 256.726562 384.78125 257.089844 384.9375 258.796875 384.9375 C 259.933594 384.9375 260.863281 385.144531 260.863281 385.460938 C 260.863281 386.191406 262.78125 386.085938 263.089844 385.304688 C 263.296875 384.832031 263.503906 384.886719 263.96875 385.460938 C 264.433594 386.035156 264.640625 386.085938 264.847656 385.566406 C 264.953125 385.25 265.988281 384.9375 267.074219 384.9375 C 268.160156 384.9375 269.195312 385.25 269.351562 385.566406 C 269.609375 386.085938 269.710938 386.085938 269.972656 385.566406 C 270.28125 384.832031 274.316406 384.675781 274.316406 385.40625 C 274.316406 385.667969 274.007812 385.984375 273.695312 386.140625 C 273.28125 386.246094 273.230469 386.558594 273.488281 386.820312 C 273.746094 387.082031 274.058594 387.027344 274.160156 386.609375 C 274.316406 386.296875 274.835938 385.984375 275.402344 385.984375 C 275.921875 385.984375 276.386719 385.722656 276.386719 385.460938 C 276.386719 385.144531 276.851562 384.9375 277.421875 384.9375 C 277.992188 384.9375 278.457031 385.144531 278.457031 385.460938 C 278.457031 385.722656 278.25 385.984375 277.9375 385.984375 C 277.679688 385.984375 277.421875 386.191406 277.421875 386.507812 C 277.421875 387.449219 280.265625 387.082031 281.042969 385.984375 C 281.871094 384.832031 283.371094 384.625 283.835938 385.566406 C 284.09375 386.085938 284.199219 386.085938 284.457031 385.566406 C 284.613281 385.199219 285.75 384.9375 287.25 384.9375 C 288.753906 384.9375 289.890625 385.199219 290.046875 385.566406 C 290.304688 386.085938 290.40625 386.085938 290.667969 385.566406 C 291.027344 384.726562 292.789062 384.726562 293.097656 385.566406 C 293.304688 386.085938 293.511719 386.035156 293.925781 385.460938 C 294.339844 384.832031 294.597656 384.886719 295.425781 385.878906 C 296.667969 387.289062 297.082031 387.34375 297.082031 385.984375 C 297.082031 385.40625 297.339844 384.9375 297.597656 384.9375 C 298.375 384.9375 298.21875 387.5 297.390625 388.390625 C 296.976562 388.808594 296.152344 389.121094 295.476562 389.121094 C 294.855469 389.121094 293.925781 389.644531 293.410156 390.273438 C 292.839844 390.847656 292.269531 391.214844 292.0625 391.003906 C 291.855469 390.796875 292.011719 390.429688 292.425781 390.167969 C 292.839844 389.90625 292.996094 389.539062 292.839844 389.332031 C 292.320312 388.859375 290.875 390.429688 290.875 391.421875 C 290.875 391.894531 290.667969 392.257812 290.355469 392.257812 C 290.097656 392.257812 289.839844 391.996094 289.839844 391.738281 C 289.839844 390.480469 287.148438 391.316406 285.390625 393.042969 C 283.683594 394.769531 283.628906 394.925781 284.457031 395.816406 C 285.128906 396.445312 285.441406 396.496094 285.597656 396.023438 C 285.699219 395.710938 286.425781 395.398438 287.199219 395.398438 C 287.976562 395.398438 288.90625 394.925781 289.320312 394.351562 C 290.097656 393.253906 292.941406 392.886719 292.941406 393.828125 C 292.941406 394.089844 292.269531 394.351562 291.390625 394.351562 C 290.5625 394.351562 289.839844 394.5625 289.839844 394.875 C 289.839844 395.136719 290.5625 395.398438 291.390625 395.398438 C 292.269531 395.398438 292.941406 395.605469 292.941406 395.921875 C 292.941406 396.183594 293.203125 396.445312 293.460938 396.445312 C 293.769531 396.445312 293.976562 395.972656 293.976562 395.398438 C 293.976562 394.820312 294.238281 394.351562 294.496094 394.351562 C 294.804688 394.351562 295.011719 394.5625 295.011719 394.875 C 295.011719 395.136719 295.945312 395.398438 297.082031 395.398438 C 298.21875 395.398438 299.152344 395.605469 299.152344 395.921875 C 299.152344 396.183594 299.617188 396.445312 300.1875 396.445312 C 300.859375 396.445312 301.222656 396.078125 301.222656 395.398438 C 301.222656 394.039062 301.636719 394.089844 302.875 395.503906 C 303.703125 396.496094 303.964844 396.546875 304.324219 395.921875 C 304.585938 395.503906 304.945312 395.34375 305.101562 395.503906 C 305.566406 395.972656 300.910156 400.628906 299.980469 400.628906 C 299.566406 400.628906 299.101562 400.941406 298.996094 401.253906 C 298.789062 401.777344 298.582031 401.777344 298.21875 401.203125 C 297.753906 400.574219 297.546875 400.574219 296.875 401.308594 C 296.410156 401.726562 296.046875 402.511719 296.046875 402.929688 C 296.046875 403.398438 295.632812 403.765625 295.011719 403.765625 C 294.441406 403.765625 293.976562 403.503906 293.976562 403.242188 C 293.976562 402.929688 293.511719 402.71875 292.996094 402.71875 C 292.425781 402.71875 291.855469 402.40625 291.753906 402.039062 C 291.546875 401.570312 291.339844 401.621094 290.925781 402.195312 C 290.460938 402.875 290.304688 402.875 289.890625 402.25 C 289.476562 401.621094 289.269531 401.621094 288.597656 402.355469 C 287.511719 403.453125 287.5625 403.765625 288.804688 403.765625 C 289.371094 403.765625 289.839844 403.976562 289.839844 404.289062 C 289.839844 404.550781 289.371094 404.8125 288.804688 404.8125 C 288.234375 404.8125 287.769531 405.019531 287.769531 405.335938 C 287.769531 405.597656 287.304688 405.859375 286.734375 405.859375 C 286.0625 405.859375 285.699219 406.222656 285.699219 406.902344 C 285.699219 407.480469 285.492188 407.949219 285.285156 407.949219 C 285.078125 407.949219 284.5625 407.480469 284.148438 406.902344 C 283.578125 406.121094 282.800781 405.859375 280.941406 405.859375 C 279.59375 405.859375 278.457031 405.597656 278.457031 405.335938 C 278.457031 405.019531 278.25 404.8125 277.9375 404.8125 C 277.679688 404.8125 277.421875 405.28125 277.421875 405.859375 C 277.421875 406.433594 277.679688 406.902344 277.9375 406.902344 C 278.25 406.902344 278.457031 407.375 278.457031 407.949219 C 278.457031 408.523438 278.714844 408.996094 278.972656 408.996094 C 279.285156 408.996094 279.492188 408.523438 279.492188 407.949219 C 279.492188 407.269531 279.851562 406.902344 280.527344 406.902344 C 281.09375 406.902344 281.558594 407.113281 281.558594 407.425781 C 281.558594 407.6875 281.351562 407.949219 281.042969 407.949219 C 280.785156 407.949219 280.527344 408.785156 280.527344 409.832031 C 280.527344 411.664062 279.285156 413.652344 278.558594 412.972656 C 278.40625 412.761719 278.558594 412.394531 278.921875 412.132812 C 280.113281 411.402344 278.300781 410.042969 276.179688 410.042969 C 275.144531 410.042969 274.316406 409.78125 274.316406 409.519531 C 274.316406 409.203125 273.851562 408.996094 273.28125 408.996094 C 272.714844 408.996094 272.246094 408.734375 272.246094 408.472656 C 272.246094 408.160156 271.574219 407.949219 270.800781 407.949219 C 269.972656 407.949219 269.039062 407.53125 268.625 406.902344 C 268.210938 406.328125 267.695312 405.859375 267.488281 405.859375 C 267.28125 405.859375 267.074219 406.328125 267.074219 406.902344 C 267.074219 407.792969 266.710938 407.949219 265.003906 407.949219 C 263.867188 407.949219 262.933594 408.160156 262.933594 408.472656 C 262.933594 408.734375 262.726562 408.996094 262.417969 408.996094 C 262.160156 408.996094 261.898438 408.523438 261.898438 407.949219 C 261.898438 407.164062 261.539062 406.902344 260.554688 406.902344 C 259.054688 406.902344 257.761719 405.804688 257.761719 404.601562 C 257.761719 404.132812 257.347656 403.765625 256.726562 403.765625 C 256.054688 403.765625 255.691406 404.132812 255.691406 404.8125 C 255.691406 406.222656 254.242188 406.171875 253.050781 404.707031 L 252.070312 403.609375 L 251.085938 404.707031 C 249.898438 406.121094 249.484375 406.171875 249.484375 404.8125 C 249.484375 404.132812 249.121094 403.765625 248.449219 403.765625 C 247.773438 403.765625 247.414062 403.398438 247.414062 402.71875 C 247.414062 402.144531 247.671875 401.671875 247.929688 401.671875 C 248.242188 401.671875 248.449219 401.882812 248.449219 402.195312 C 248.449219 402.457031 248.707031 402.71875 248.964844 402.71875 C 249.277344 402.71875 249.484375 402.25 249.484375 401.671875 C 249.484375 400.890625 249.121094 400.628906 248.136719 400.628906 C 246.636719 400.628906 244.671875 402.25 245.757812 402.613281 C 246.636719 402.875 246.535156 403.765625 245.601562 403.765625 C 245.136719 403.765625 244.207031 404.339844 243.480469 405.074219 C 242.289062 406.277344 242.238281 406.433594 243.015625 407.269531 C 243.738281 408.003906 243.945312 408.003906 244.414062 407.375 C 244.773438 406.800781 244.980469 406.800781 245.1875 407.269531 C 245.34375 407.6875 246.429688 407.949219 247.980469 407.949219 C 250.15625 407.949219 250.515625 408.105469 250.515625 408.996094 C 250.515625 409.675781 250.878906 410.042969 251.550781 410.042969 C 252.121094 410.042969 252.585938 409.78125 252.585938 409.519531 C 252.585938 409.203125 253.3125 408.996094 254.140625 408.996094 C 255.226562 408.996094 255.691406 409.257812 255.691406 409.832031 C 255.691406 410.617188 256.882812 412.132812 257.449219 412.132812 C 257.605469 412.132812 257.761719 411.664062 257.761719 411.085938 C 257.761719 410.511719 258.019531 410.042969 258.277344 410.042969 C 258.589844 410.042969 258.796875 410.511719 258.796875 411.085938 C 258.796875 411.925781 259.15625 412.132812 260.347656 412.132812 C 261.226562 412.132812 261.898438 412.34375 261.898438 412.65625 C 261.898438 412.917969 262.574219 413.179688 263.398438 413.179688 C 264.226562 413.179688 265.054688 413.492188 265.160156 413.808594 C 265.367188 414.332031 265.574219 414.277344 266.039062 413.703125 C 266.503906 413.128906 266.710938 413.074219 266.917969 413.546875 C 267.074219 413.964844 268.160156 414.226562 269.710938 414.226562 C 271.109375 414.226562 272.246094 414.433594 272.246094 414.75 C 272.246094 415.011719 272.972656 415.273438 273.800781 415.273438 C 274.679688 415.273438 275.351562 415.480469 275.351562 415.796875 C 275.351562 416.054688 276.386719 416.316406 277.679688 416.316406 C 279.492188 416.316406 280.371094 416.632812 281.300781 417.625 C 282.027344 418.304688 282.59375 419.039062 282.59375 419.195312 C 282.59375 419.769531 279.542969 419.402344 279.285156 418.777344 C 279.023438 418.253906 278.921875 418.253906 278.664062 418.777344 C 278.300781 419.5625 276.386719 419.71875 276.386719 418.984375 C 276.386719 418.722656 276.695312 418.410156 277.058594 418.253906 C 277.371094 418.148438 277.523438 417.835938 277.316406 417.625 C 277.058594 417.363281 276.488281 417.730469 275.921875 418.304688 C 274.730469 419.71875 273.746094 419.769531 272.765625 418.410156 C 272.246094 417.679688 271.417969 417.363281 270.074219 417.363281 C 268.988281 417.363281 268.109375 417.574219 268.109375 417.886719 C 268.109375 418.148438 267.644531 418.410156 267.074219 418.410156 C 266.503906 418.410156 266.039062 418.621094 266.039062 418.933594 C 266.039062 419.195312 266.761719 419.457031 267.589844 419.457031 C 268.46875 419.457031 269.144531 419.664062 269.144531 419.980469 C 269.144531 420.292969 266.402344 420.503906 261.898438 420.503906 C 255.019531 420.503906 254.65625 420.449219 254.65625 419.457031 C 254.65625 418.097656 254.242188 418.148438 252.949219 419.5625 C 252.277344 420.398438 251.863281 420.554688 251.707031 420.082031 C 251.449219 419.351562 249.484375 419.246094 249.484375 419.980469 C 249.484375 420.242188 248.808594 420.503906 247.929688 420.503906 C 247.101562 420.503906 246.378906 420.242188 246.378906 419.980469 C 246.378906 419.246094 244.464844 419.351562 244.101562 420.082031 C 243.84375 420.605469 243.738281 420.605469 243.480469 420.082031 C 243.324219 419.769531 242.757812 419.457031 242.1875 419.457031 C 241.671875 419.457031 241.203125 419.195312 241.203125 418.933594 C 241.203125 418.621094 240.53125 418.410156 239.652344 418.410156 C 238.460938 418.410156 238.101562 418.621094 238.101562 419.457031 C 238.101562 420.34375 237.738281 420.503906 236.082031 420.503906 C 234.945312 420.503906 233.910156 420.1875 233.753906 419.820312 C 233.496094 419.300781 233.390625 419.300781 233.132812 419.820312 C 232.769531 420.605469 228.789062 420.761719 228.789062 419.980469 C 228.789062 419.664062 228.320312 419.457031 227.753906 419.457031 C 227.183594 419.457031 226.71875 419.664062 226.71875 419.980469 C 226.71875 420.242188 226.253906 420.503906 225.683594 420.503906 C 225.113281 420.503906 224.648438 420.242188 224.648438 419.980469 C 224.648438 419.246094 222.734375 419.351562 222.421875 420.082031 C 222.214844 420.605469 222.007812 420.554688 221.59375 419.980469 C 221.078125 419.300781 220.976562 419.300781 220.507812 419.980469 C 220.042969 420.660156 219.941406 420.660156 219.421875 419.980469 C 219.007812 419.402344 218.800781 419.351562 218.59375 419.820312 C 218.285156 420.710938 216.523438 420.710938 216.164062 419.820312 C 215.90625 419.300781 215.800781 419.300781 215.542969 419.820312 C 215.335938 420.34375 199.554688 420.503906 139.226562 420.503906 C 66.691406 420.503906 63.222656 420.449219 63.222656 419.5625 C 63.222656 419.039062 63.691406 418.304688 64.257812 417.886719 C 64.828125 417.46875 65.292969 416.527344 65.292969 415.796875 C 65.292969 415.0625 65.757812 414.121094 66.328125 413.703125 C 66.898438 413.285156 67.363281 412.34375 67.363281 411.609375 C 67.363281 410.878906 67.828125 409.9375 68.398438 409.519531 C 68.96875 409.101562 69.433594 408.160156 69.433594 407.425781 C 69.433594 406.695312 69.898438 405.753906 70.46875 405.335938 C 71.035156 404.917969 71.503906 404.183594 71.503906 403.660156 C 71.503906 403.136719 71.761719 402.71875 72.019531 402.71875 C 72.332031 402.71875 72.539062 402.25 72.539062 401.671875 C 72.539062 401.097656 72.796875 400.628906 73.054688 400.628906 C 73.363281 400.628906 73.570312 400.15625 73.570312 399.582031 C 73.570312 399.007812 73.832031 398.535156 74.089844 398.535156 C 74.398438 398.535156 74.605469 398.066406 74.605469 397.488281 C 74.605469 396.914062 74.867188 396.445312 75.125 396.445312 C 75.433594 396.445312 75.640625 395.761719 75.640625 394.980469 C 75.640625 394.140625 76.054688 393.199219 76.675781 392.78125 C 77.246094 392.363281 77.710938 391.421875 77.710938 390.691406 C 77.710938 389.957031 78.175781 389.015625 78.746094 388.597656 C 79.316406 388.179688 79.78125 387.449219 79.78125 386.925781 C 79.78125 386.402344 80.039062 385.984375 80.296875 385.984375 C 80.609375 385.984375 80.816406 385.511719 80.816406 384.9375 C 80.816406 384.363281 81.074219 383.890625 81.332031 383.890625 C 81.644531 383.890625 81.851562 383.421875 81.851562 382.84375 C 81.851562 382.269531 82.109375 381.800781 82.367188 381.800781 C 82.679688 381.800781 82.886719 381.328125 82.886719 380.753906 C 82.886719 380.179688 83.144531 379.707031 83.402344 379.707031 C 83.710938 379.707031 83.917969 379.027344 83.917969 378.242188 C 83.917969 377.40625 84.332031 376.464844 84.953125 376.046875 C 85.523438 375.628906 85.988281 374.6875 85.988281 373.953125 C 85.988281 373.222656 86.453125 372.28125 87.023438 371.863281 C 87.59375 371.445312 88.058594 370.710938 88.058594 370.1875 C 88.058594 369.664062 88.316406 369.246094 88.574219 369.246094 C 88.886719 369.246094 89.09375 368.777344 89.09375 368.199219 C 89.09375 367.625 89.351562 367.15625 89.609375 367.15625 C 89.921875 367.15625 90.128906 366.683594 90.128906 366.109375 C 90.128906 365.535156 90.386719 365.0625 90.644531 365.0625 C 90.957031 365.0625 91.164062 364.59375 91.164062 364.015625 C 91.164062 363.441406 91.421875 362.972656 91.679688 362.972656 C 91.992188 362.972656 92.199219 362.289062 92.199219 361.507812 C 92.199219 360.667969 92.613281 359.726562 93.234375 359.308594 C 93.800781 358.890625 94.265625 357.949219 94.265625 357.21875 C 94.265625 356.484375 94.734375 355.542969 95.300781 355.125 C 95.871094 354.707031 96.335938 353.976562 96.335938 353.453125 C 96.335938 352.929688 96.59375 352.511719 96.855469 352.511719 C 97.164062 352.511719 97.371094 352.039062 97.371094 351.464844 C 97.371094 350.890625 97.628906 350.417969 97.890625 350.417969 C 98.199219 350.417969 98.40625 349.949219 98.40625 349.371094 C 98.40625 348.796875 98.664062 348.328125 98.925781 348.328125 C 99.234375 348.328125 99.441406 347.855469 99.441406 347.28125 C 99.441406 346.703125 99.699219 346.234375 99.957031 346.234375 C 100.269531 346.234375 100.476562 345.554688 100.476562 344.769531 C 100.476562 343.933594 100.890625 342.992188 101.511719 342.574219 C 102.078125 342.15625 102.546875 341.265625 102.546875 340.585938 C 102.546875 339.957031 103.0625 338.808594 103.734375 338.128906 L 104.875 336.871094 L 193.242188 336.871094 C 251.8125 336.820312 281.558594 336.976562 281.558594 337.34375 Z M 288.078125 365.796875 C 289.320312 367.101562 288.960938 368.199219 287.25 368.199219 C 286.425781 368.199219 285.699219 367.9375 285.699219 367.679688 C 285.699219 367.363281 285.957031 367.15625 286.21875 367.15625 C 286.527344 367.15625 286.734375 366.683594 286.734375 366.109375 C 286.734375 364.855469 287.042969 364.800781 288.078125 365.796875 Z M 252.585938 405.335938 C 252.585938 405.597656 252.378906 405.859375 252.070312 405.859375 C 251.8125 405.859375 251.550781 405.597656 251.550781 405.335938 C 251.550781 405.019531 251.8125 404.8125 252.070312 404.8125 C 252.378906 404.8125 252.585938 405.019531 252.585938 405.335938 Z M 252.585938 405.335938 "/>
<path style=" stroke:none;fill-rule:nonzero;fill:rgb(0%,0%,0%);fill-opacity:1;" d="M 239.136719 339.433594 C 239.136719 339.695312 239.394531 339.957031 239.652344 339.957031 C 239.960938 339.957031 240.167969 339.695312 240.167969 339.433594 C 240.167969 339.121094 239.960938 338.914062 239.652344 338.914062 C 239.394531 338.914062 239.136719 339.121094 239.136719 339.433594 Z M 239.136719 339.433594 "/>
<path style=" stroke:none;fill-rule:nonzero;fill:rgb(0%,0%,0%);fill-opacity:1;" d="M 246.378906 339.957031 C 246.378906 340.535156 246.636719 341.003906 246.894531 341.003906 C 247.207031 341.003906 247.414062 340.535156 247.414062 339.957031 C 247.414062 339.382812 247.207031 338.914062 246.894531 338.914062 C 246.636719 338.914062 246.378906 339.382812 246.378906 339.957031 Z M 246.378906 339.957031 "/>
<path style=" stroke:none;fill-rule:nonzero;fill:rgb(0%,0%,0%);fill-opacity:1;" d="M 248.449219 339.957031 C 248.449219 340.535156 248.707031 341.003906 248.964844 341.003906 C 249.277344 341.003906 249.484375 340.535156 249.484375 339.957031 C 249.484375 339.382812 249.277344 338.914062 248.964844 338.914062 C 248.707031 338.914062 248.449219 339.382812 248.449219 339.957031 Z M 248.449219 339.957031 "/>
<path style=" stroke:none;fill-rule:nonzero;fill:rgb(0%,0%,0%);fill-opacity:1;" d="M 255.691406 340.480469 C 255.691406 340.742188 255.949219 341.003906 256.207031 341.003906 C 256.519531 341.003906 256.726562 340.742188 256.726562 340.480469 C 256.726562 340.167969 256.519531 339.957031 256.207031 339.957031 C 255.949219 339.957031 255.691406 340.167969 255.691406 340.480469 Z M 255.691406 340.480469 "/>
<path style=" stroke:none;fill-rule:nonzero;fill:rgb(0%,0%,0%);fill-opacity:1;" d="M 287.769531 349.371094 C 287.769531 349.949219 288.027344 350.417969 288.285156 350.417969 C 288.597656 350.417969 288.804688 349.949219 288.804688 349.371094 C 288.804688 348.796875 288.597656 348.328125 288.285156 348.328125 C 288.027344 348.328125 287.769531 348.796875 287.769531 349.371094 Z M 287.769531 349.371094 "/>
<path style=" stroke:none;fill-rule:nonzero;fill:rgb(0%,0%,0%);fill-opacity:1;" d="M 285.699219 350.941406 C 285.699219 351.203125 285.957031 351.464844 286.21875 351.464844 C 286.527344 351.464844 286.734375 351.203125 286.734375 350.941406 C 286.734375 350.628906 286.527344 350.417969 286.21875 350.417969 C 285.957031 350.417969 285.699219 350.628906 285.699219 350.941406 Z M 285.699219 350.941406 "/>
<path style=" stroke:none;fill-rule:nonzero;fill:rgb(0%,0%,0%);fill-opacity:1;" d="M 267.074219 369.769531 C 267.074219 370.03125 267.332031 370.292969 267.589844 370.292969 C 267.902344 370.292969 268.109375 370.03125 268.109375 369.769531 C 268.109375 369.457031 267.902344 369.246094 267.589844 369.246094 C 267.332031 369.246094 267.074219 369.457031 267.074219 369.769531 Z M 267.074219 369.769531 "/>
<path style=" stroke:none;fill-rule:nonzero;fill:rgb(0%,0%,0%);fill-opacity:1;" d="M 271.832031 370.082031 C 271.265625 370.710938 271.316406 370.972656 272.039062 371.757812 C 272.714844 372.386719 273.023438 372.4375 273.179688 371.964844 C 273.28125 371.652344 273.953125 371.339844 274.679688 371.339844 C 275.816406 371.339844 277.421875 370.292969 277.421875 369.5625 C 277.421875 368.933594 275.457031 369.246094 275.144531 369.875 C 274.886719 370.398438 274.78125 370.398438 274.523438 369.875 C 274.109375 369.039062 272.660156 369.089844 271.832031 370.082031 Z M 271.832031 370.082031 "/>
<path style=" stroke:none;fill-rule:nonzero;fill:rgb(0%,0%,0%);fill-opacity:1;" d="M 262.933594 370.816406 C 262.933594 371.078125 263.191406 371.339844 263.453125 371.339844 C 263.761719 371.339844 263.96875 371.078125 263.96875 370.816406 C 263.96875 370.503906 263.761719 370.292969 263.453125 370.292969 C 263.191406 370.292969 262.933594 370.503906 262.933594 370.816406 Z M 262.933594 370.816406 "/>
<path style=" stroke:none;fill-rule:nonzero;fill:rgb(0%,0%,0%);fill-opacity:1;" d="M 280.527344 392.78125 C 280.527344 393.042969 280.785156 393.304688 281.042969 393.304688 C 281.351562 393.304688 281.558594 393.042969 281.558594 392.78125 C 281.558594 392.46875 281.351562 392.257812 281.042969 392.257812 C 280.785156 392.257812 280.527344 392.46875 280.527344 392.78125 Z M 280.527344 392.78125 "/>
<path style=" stroke:none;fill-rule:nonzero;fill:rgb(0%,0%,0%);fill-opacity:1;" d="M 283.628906 399.058594 C 283.628906 399.320312 283.886719 399.582031 284.148438 399.582031 C 284.457031 399.582031 284.664062 399.320312 284.664062 399.058594 C 284.664062 398.746094 284.457031 398.535156 284.148438 398.535156 C 283.886719 398.535156 283.628906 398.746094 283.628906 399.058594 Z M 283.628906 399.058594 "/>
<path style=" stroke:none;fill-rule:nonzero;fill:rgb(0%,0%,0%);fill-opacity:1;" d="M 222.578125 400.105469 C 222.578125 400.367188 222.835938 400.628906 223.097656 400.628906 C 223.40625 400.628906 223.613281 400.367188 223.613281 400.105469 C 223.613281 399.789062 223.40625 399.582031 223.097656 399.582031 C 222.835938 399.582031 222.578125 399.789062 222.578125 400.105469 Z M 222.578125 400.105469 "/>
<path style=" stroke:none;fill-rule:nonzero;fill:rgb(0%,0%,0%);fill-opacity:1;" d="M 251.550781 400.105469 C 251.550781 400.367188 251.8125 400.628906 252.070312 400.628906 C 252.378906 400.628906 252.585938 400.367188 252.585938 400.105469 C 252.585938 399.789062 252.378906 399.582031 252.070312 399.582031 C 251.8125 399.582031 251.550781 399.789062 251.550781 400.105469 Z M 251.550781 400.105469 "/>
<path style=" stroke:none;fill-rule:nonzero;fill:rgb(0%,0%,0%);fill-opacity:1;" d="M 273.28125 401.152344 C 273.28125 401.414062 273.539062 401.671875 273.800781 401.671875 C 274.109375 401.671875 274.316406 401.414062 274.316406 401.152344 C 274.316406 400.835938 274.109375 400.628906 273.800781 400.628906 C 273.539062 400.628906 273.28125 400.835938 273.28125 401.152344 Z M 273.28125 401.152344 "/>
<path style=" stroke:none;fill-rule:nonzero;fill:rgb(0%,0%,0%);fill-opacity:1;" d="M 250.515625 402.195312 C 250.515625 402.457031 250.777344 402.71875 251.035156 402.71875 C 251.34375 402.71875 251.550781 402.457031 251.550781 402.195312 C 251.550781 401.882812 251.34375 401.671875 251.035156 401.671875 C 250.777344 401.671875 250.515625 401.882812 250.515625 402.195312 Z M 250.515625 402.195312 "/>
<path style=" stroke:none;fill-rule:nonzero;fill:rgb(0%,0%,0%);fill-opacity:1;" d="M 224.648438 403.242188 C 224.648438 403.503906 225.113281 403.765625 225.683594 403.765625 C 226.253906 403.765625 226.71875 403.503906 226.71875 403.242188 C 226.71875 402.929688 226.253906 402.71875 225.683594 402.71875 C 225.113281 402.71875 224.648438 402.929688 224.648438 403.242188 Z M 224.648438 403.242188 "/>
<path style=" stroke:none;fill-rule:nonzero;fill:rgb(0%,0%,0%);fill-opacity:1;" d="M 227.753906 403.242188 C 227.753906 403.503906 228.476562 403.765625 229.304688 403.765625 C 230.183594 403.765625 230.855469 403.503906 230.855469 403.242188 C 230.855469 402.929688 230.183594 402.71875 229.304688 402.71875 C 228.476562 402.71875 227.753906 402.929688 227.753906 403.242188 Z M 227.753906 403.242188 "/>
<path style=" stroke:none;fill-rule:nonzero;fill:rgb(0%,0%,0%);fill-opacity:1;" d="M 237.066406 403.242188 C 237.066406 403.503906 237.324219 403.765625 237.582031 403.765625 C 237.894531 403.765625 238.101562 403.503906 238.101562 403.242188 C 238.101562 402.929688 237.894531 402.71875 237.582031 402.71875 C 237.324219 402.71875 237.066406 402.929688 237.066406 403.242188 Z M 237.066406 403.242188 "/>
<path style=" stroke:none;fill-rule:nonzero;fill:rgb(0%,0%,0%);fill-opacity:1;" d="M 281.558594 403.035156 C 281.558594 403.554688 283.007812 404.8125 283.628906 404.8125 C 284.25 404.8125 285.699219 403.554688 285.699219 403.035156 C 285.699219 402.875 284.769531 402.71875 283.628906 402.71875 C 282.492188 402.71875 281.558594 402.875 281.558594 403.035156 Z M 281.558594 403.035156 "/>
<path style=" stroke:none;fill-rule:nonzero;fill:rgb(0%,0%,0%);fill-opacity:1;" d="M 233.496094 404.601562 C 233.132812 405.019531 232.976562 405.542969 233.183594 405.753906 C 233.339844 405.910156 233.753906 405.753906 234.011719 405.335938 C 234.425781 404.757812 234.632812 404.707031 234.839844 405.179688 C 235.253906 406.222656 236.03125 405.960938 236.03125 404.8125 C 236.03125 403.554688 234.53125 403.453125 233.496094 404.601562 Z M 233.496094 404.601562 "/>
<path style=" stroke:none;fill-rule:nonzero;fill:rgb(0%,0%,0%);fill-opacity:1;" d="M 265.003906 404.289062 C 265.003906 404.550781 265.261719 404.8125 265.523438 404.8125 C 265.832031 404.8125 266.039062 404.550781 266.039062 404.289062 C 266.039062 403.976562 265.832031 403.765625 265.523438 403.765625 C 265.261719 403.765625 265.003906 403.976562 265.003906 404.289062 Z M 265.003906 404.289062 "/>
<path style=" stroke:none;fill-rule:nonzero;fill:rgb(0%,0%,0%);fill-opacity:1;" d="M 239.136719 405.335938 C 239.136719 405.597656 239.394531 405.859375 239.652344 405.859375 C 239.960938 405.859375 240.167969 405.597656 240.167969 405.335938 C 240.167969 405.019531 239.960938 404.8125 239.652344 404.8125 C 239.394531 404.8125 239.136719 405.019531 239.136719 405.335938 Z M 239.136719 405.335938 "/>
<path style=" stroke:none;fill-rule:nonzero;fill:rgb(0%,0%,0%);fill-opacity:1;" d="M 251.550781 415.796875 C 251.550781 416.054688 251.8125 416.316406 252.070312 416.316406 C 252.378906 416.316406 252.585938 416.054688 252.585938 415.796875 C 252.585938 415.480469 252.378906 415.273438 252.070312 415.273438 C 251.8125 415.273438 251.550781 415.480469 251.550781 415.796875 Z M 251.550781 415.796875 "/>
<path style=" stroke:none;fill-rule:nonzero;fill:rgb(0%,0%,0%);fill-opacity:1;" d="M 217.40625 416.839844 C 217.40625 417.101562 217.664062 417.363281 217.921875 417.363281 C 218.234375 417.363281 218.441406 417.101562 218.441406 416.839844 C 218.441406 416.527344 218.234375 416.316406 217.921875 416.316406 C 217.664062 416.316406 217.40625 416.527344 217.40625 416.839844 Z M 217.40625 416.839844 "/>
<path style=" stroke:none;fill-rule:nonzero;fill:rgb(0%,0%,0%);fill-opacity:1;" d="M 236.03125 418.933594 C 236.03125 419.195312 236.289062 419.457031 236.546875 419.457031 C 236.859375 419.457031 237.066406 419.195312 237.066406 418.933594 C 237.066406 418.621094 236.859375 418.410156 236.546875 418.410156 C 236.289062 418.410156 236.03125 418.621094 236.03125 418.933594 Z M 236.03125 418.933594 "/>
</g>
</svg>
